<svg xmlns="http://www.w3.org/2000/svg" width="32" height="32" viewBox="0 0 32 32">
  <defs>
    <linearGradient id="bgGradient" x1="0%" y1="0%" x2="100%" y2="100%">
      <stop offset="0%" style="stop-color:#1e40af;stop-opacity:1" />
      <stop offset="50%" style="stop-color:#3b82f6;stop-opacity:1" />
      <stop offset="100%" style="stop-color:#60a5fa;stop-opacity:1" />
    </linearGradient>
    <linearGradient id="bookGradient" x1="0%" y1="0%" x2="100%" y2="100%">
      <stop offset="0%" style="stop-color:#10b981;stop-opacity:1" />
      <stop offset="100%" style="stop-color:#059669;stop-opacity:1" />
    </linearGradient>
    <linearGradient id="screenGradient" x1="0%" y1="0%" x2="100%" y2="100%">
      <stop offset="0%" style="stop-color:#1f2937;stop-opacity:1" />
      <stop offset="100%" style="stop-color:#374151;stop-opacity:1" />
    </linearGradient>
  </defs>
  
  <!-- Fondo circular -->
  <circle cx="16" cy="16" r="15" fill="url(#bgGradient)" stroke="#1e40af" stroke-width="1"/>
  
  <!-- Libro/Manual base -->
  <rect x="6" y="10" width="10" height="12" rx="1" fill="url(#bookGradient)" stroke="#059669" stroke-width="0.3"/>
  
  <!-- Páginas del libro -->
  <rect x="6.5" y="10.5" width="9" height="11" rx="0.5" fill="#ffffff" stroke="#e5e7eb" stroke-width="0.1"/>
  
  <!-- Líneas de texto en el libro -->
  <rect x="7" y="12" width="6" height="0.3" fill="#374151" opacity="0.8"/>
  <rect x="7" y="13" width="5" height="0.3" fill="#374151" opacity="0.6"/>
  <rect x="7" y="14" width="7" height="0.3" fill="#374151" opacity="0.7"/>
  <rect x="7" y="15" width="4" height="0.3" fill="#374151" opacity="0.8"/>
  <rect x="7" y="16" width="6" height="0.3" fill="#374151" opacity="0.6"/>
  <rect x="7" y="17" width="5" height="0.3" fill="#374151" opacity="0.7"/>
  
  <!-- Monitor/Pantalla -->
  <rect x="18" y="9" width="9" height="6" rx="0.5" fill="url(#screenGradient)" stroke="#374151" stroke-width="0.3"/>
  <rect x="18.5" y="9.5" width="8" height="4.5" rx="0.3" fill="#000000"/>
  
  <!-- Contenido de la pantalla - gráficos educativos -->
  <rect x="19" y="10" width="2" height="1" fill="#3b82f6" opacity="0.8"/>
  <rect x="19" y="11.5" width="3" height="1" fill="#10b981" opacity="0.8"/>
  <rect x="19" y="13" width="2.5" height="1" fill="#f59e0b" opacity="0.8"/>
  
  <!-- Iconos de datos -->
  <circle cx="24" cy="10.5" r="0.4" fill="#ffffff" opacity="0.9"/>
  <circle cx="24" cy="12" r="0.4" fill="#ffffff" opacity="0.7"/>
  <circle cx="24" cy="13.5" r="0.4" fill="#ffffff" opacity="0.8"/>
  
  <!-- Base del monitor -->
  <rect x="21" y="15" width="1.5" height="2" fill="#6b7280"/>
  <rect x="19" y="17" width="4" height="0.5" rx="0.3" fill="#6b7280"/>
  
  <!-- Engranajes (gestión/administración) -->
  <g transform="translate(23, 20)">
    <circle cx="0" cy="0" r="1.5" fill="#f59e0b" stroke="#d97706" stroke-width="0.3"/>
    <circle cx="0" cy="0" r="0.8" fill="#ffffff"/>
    <rect x="-0.3" y="-1" width="0.6" height="0.5" fill="#d97706"/>
    <rect x="-0.3" y="0.5" width="0.6" height="0.5" fill="#d97706"/>
    <rect x="-1" y="-0.3" width="0.5" height="0.6" fill="#d97706"/>
    <rect x="0.5" y="-0.3" width="0.5" height="0.6" fill="#d97706"/>
  </g>
  
  <g transform="translate(26, 22)">
    <circle cx="0" cy="0" r="1" fill="#ef4444" stroke="#dc2626" stroke-width="0.2"/>
    <circle cx="0" cy="0" r="0.5" fill="#ffffff"/>
    <rect x="-0.2" y="-0.8" width="0.4" height="0.3" fill="#dc2626"/>
    <rect x="-0.2" y="0.5" width="0.4" height="0.3" fill="#dc2626"/>
    <rect x="-0.8" y="-0.2" width="0.3" height="0.4" fill="#dc2626"/>
    <rect x="0.5" y="-0.2" width="0.3" height="0.4" fill="#dc2626"/>
  </g>
  
  <!-- Icono de red/conectividad -->
  <g transform="translate(9, 6)">
    <circle cx="0" cy="0" r="0.5" fill="#ffffff" opacity="0.9"/>
    <circle cx="2" cy="0" r="0.5" fill="#ffffff" opacity="0.9"/>
    <circle cx="4" cy="0" r="0.5" fill="#ffffff" opacity="0.9"/>
    <line x1="0.5" y1="0" x2="1.5" y2="0" stroke="#ffffff" stroke-width="0.3" opacity="0.8"/>
    <line x1="2.5" y1="0" x2="3.5" y2="0" stroke="#ffffff" stroke-width="0.3" opacity="0.8"/>
  </g>
</svg>